<svg width="26" height="26" viewBox="0 0 26 26" fill="none" xmlns="http://www.w3.org/2000/svg">
<g id="Adobe Aftereffects" clip-path="url(#clip0_168_66)">
<path id="Vector" d="M17.8024 10.3361C16.7657 10.3361 16.3183 11.2483 16.2121 12.2124H18.3929L18.395 12.2146C18.9497 12.2146 19.1458 12.2146 19.1989 12.1973C19.1989 12.1236 19.2173 12.0618 19.2173 12.0088C19.2173 11.4183 18.9291 10.3361 17.8024 10.3361ZM9.06535 7.50317C8.83352 8.77067 8.24635 10.9135 7.79785 12.5948H10.3892C10.0859 11.3967 9.34918 8.77067 9.08268 7.50317H9.06535Z" fill="#FFC338"/>
<path id="Vector_2" d="M0 2.16667V23.8333C0 25.0304 0.969583 26 2.16667 26H23.8333C25.0304 26 26 25.0304 26 23.8333V2.16667C26 0.969583 25.0304 0 23.8333 0H2.16667C0.969583 0 0 0.969583 0 2.16667ZM13.6598 17.7082H11.8723C11.7834 17.7082 11.7314 17.6757 11.713 17.6042L10.8193 14.352H7.35258L7.34933 14.3542L6.49133 17.589C6.47292 17.6789 6.43717 17.7114 6.331 17.7114H4.74067C4.63233 17.7114 4.615 17.6735 4.63233 17.5489L7.709 6.78817C7.76317 6.59317 7.79783 6.43608 7.81517 5.89983C7.81517 5.82833 7.85092 5.7915 7.90508 5.7915H10.1757C10.2472 5.7915 10.2841 5.811 10.3014 5.89983L13.7497 17.5673C13.767 17.6562 13.7497 17.7082 13.6598 17.7082ZM20.9668 13.4983C20.9484 13.5872 20.9127 13.6175 20.8238 13.6359C20.6093 13.6717 19.9658 13.7074 19.0179 13.7074H16.1958C16.2153 15.171 16.9119 16.1525 18.5553 16.1525C19.1988 16.1525 19.7503 16.068 20.3212 15.8167C20.3938 15.782 20.4479 15.8004 20.4479 15.8893V17.2478C20.4479 17.3561 20.4122 17.4103 20.3396 17.4644C19.7687 17.7504 19.0569 17.8761 18.1621 17.8761C15.3021 17.8761 14.2296 15.7668 14.2296 13.4073C14.2296 10.8507 15.5534 8.75983 17.8772 8.75983C20.2367 8.75983 21.0589 10.7456 21.0589 12.3533C21.0589 12.8733 21.021 13.3023 20.9668 13.4983Z" fill="#FFC338"/>
</g>
<defs>
<clipPath id="clip0_168_66">
<rect width="26" height="26" fill="white"/>
</clipPath>
</defs>
</svg>
