<svg width="40" height="41" viewBox="0 0 40 41" fill="none" xmlns="http://www.w3.org/2000/svg">
<g id="Arrow Right">
<path id="Vector" d="M30.8838 19.6163L23.8258 12.5583C23.5816 12.3142 23.186 12.3142 22.9419 12.5583L22.0581 13.442C21.814 13.6862 21.814 14.0818 22.0581 14.3259L26.9824 19.25H9.375C9.02987 19.25 8.75 19.5299 8.75 19.875V21.125C8.75 21.4702 9.02987 21.75 9.375 21.75H26.9824L22.0581 26.6743C21.814 26.9184 21.814 27.314 22.0581 27.5582L22.9419 28.4419C23.186 28.686 23.5816 28.686 23.8258 28.4419L30.8838 21.3839C31.3719 20.8957 31.3719 20.1044 30.8838 19.6163Z" fill="white"/>
<path id="Vector_2" d="M20 3C10.3504 3 2.5 10.8504 2.5 20.5C2.5 30.1496 10.3504 38 20 38C29.6496 38 37.5 30.1496 37.5 20.5C37.5 10.8504 29.6496 3 20 3ZM20 35.5C11.7285 35.5 5 28.7715 5 20.5C5 12.2285 11.7285 5.5 20 5.5C28.2715 5.5 35 12.2285 35 20.5C35 28.7715 28.2715 35.5 20 35.5Z" fill="white"/>
</g>
</svg>
