<svg width="26" height="26" viewBox="0 0 26 26" fill="none" xmlns="http://www.w3.org/2000/svg">
<g id="Design">
<path id="Vector" d="M6.96432 25.0714C9.78492 25.0714 12.0715 22.7849 12.0715 19.9643C12.0715 17.1437 9.78492 14.8571 6.96432 14.8571C4.14372 14.8571 1.85718 17.1437 1.85718 19.9643C1.85718 22.7849 4.14372 25.0714 6.96432 25.0714Z" fill="#FFC338" stroke="#FFC338" stroke-miterlimit="10"/>
<path id="Vector_2" d="M24.1429 12.0714H15.7857C15.2286 12.0714 14.8572 11.7 14.8572 11.1428V2.78569C14.8572 2.22855 15.2286 1.85712 15.7857 1.85712H24.1429C24.7 1.85712 25.0715 2.22855 25.0715 2.78569V11.1428C25.0715 11.7 24.7 12.0714 24.1429 12.0714Z" fill="#FFC338" stroke="#FFC338" stroke-miterlimit="10"/>
<path id="Vector_3" d="M24.0683 25.0714C23.8859 25.0714 23.7035 25.0714 23.5211 24.8874L15.1308 16.4215C14.766 16.0534 14.766 15.5013 15.1308 15.1332C15.4956 14.7651 16.0428 14.7651 16.4076 15.1332L24.7979 23.5991C25.1627 23.9672 25.1627 24.5193 24.7979 24.8874C24.6155 25.0714 24.4331 25.0714 24.0683 25.0714Z" fill="#FFC338"/>
<path id="Vector_4" d="M15.8604 25.0714C16.0428 25.0714 16.2252 25.0714 16.4076 24.8874L24.7979 16.4215C25.1627 16.0534 25.1627 15.5013 24.7979 15.1332C24.4331 14.7651 23.8859 14.7651 23.5211 15.1332L15.1308 23.5991C14.766 23.9672 14.766 24.5193 15.1308 24.8874C15.4956 25.0714 15.678 25.0714 15.8604 25.0714Z" fill="#FFC338"/>
<path id="Vector_5" d="M11.3656 12.0714H2.83201C2.08996 12.0714 1.71894 11.5066 1.90445 10.9417L6.17124 2.28075C6.54226 1.71591 7.46982 1.71591 7.65533 2.28075L11.9221 10.9417C12.2931 11.5066 11.9221 12.0714 11.3656 12.0714Z" fill="#FFC338" stroke="#FFC338" stroke-miterlimit="10"/>
</g>
</svg>
