<svg width="26" height="26" viewBox="0 0 26 26" fill="none" xmlns="http://www.w3.org/2000/svg">
<g id="Figma">
<path id="Vector" d="M17.3334 17.3301C19.7254 17.3301 21.6645 15.3909 21.6645 12.9989C21.6645 10.6069 19.7254 8.66772 17.3334 8.66772C14.9413 8.66772 13.0022 10.6069 13.0022 12.9989C13.0022 15.3909 14.9413 17.3301 17.3334 17.3301Z" fill="#FFC338"/>
<path id="Vector_2" d="M4.33337 21.6688C4.33337 24.0652 6.27362 26 8.66562 26C11.0576 26 12.9968 24.0598 12.9968 21.6688V8.66775H17.3334L17.3345 8.66883C19.7275 8.66883 21.6667 6.7275 21.6667 4.33658C21.6667 1.94567 19.7265 0 17.3345 0H8.66562C6.27254 0 4.33337 1.94025 4.33337 4.33117C4.33337 6.72208 6.27362 8.66233 8.66562 8.66233C6.27254 8.66883 4.33337 10.608 4.33337 13C4.33337 15.392 6.27362 17.3312 8.66562 17.3312C6.27254 17.3312 4.33337 19.2714 4.33337 21.6688Z" fill="#FFC338"/>
</g>
</svg>
