<?xml version="1.0" encoding="UTF-8"?>
<svg id="Calque_1" data-name="Calque 1" xmlns="http://www.w3.org/2000/svg" viewBox="0 0 144.39 79.72">
  <defs>
    <style>
      .cls-1 {
        fill: #939393;
      }

      .cls-2 {
        fill: #fff;
      }
    </style>
  </defs>
  <rect class="cls-2" x="108" y="38.04" width="5" height="5"/>
  <path class="cls-2" d="M13.89,43.05V4.8H0V0h32v4.8h-8.51v38.25h-9.6Z"/>
  <path class="cls-2" d="M47.39,0h5.6c2.62,0,4.86.94,6.74,2.83,1.88,1.88,2.81,4.13,2.81,6.73v23.95c0,2.59-.94,4.82-2.81,6.72-1.88,1.89-4.12,2.84-6.74,2.84h-5.6c-2.62,0-4.86-.94-6.74-2.81s-2.81-4.12-2.81-6.74V9.55c0-2.62.94-4.86,2.81-6.74,1.88-1.88,4.12-2.81,6.74-2.81ZM47.39,9.55v23.95c0,1.29.47,2.4,1.4,3.34.93.94,2.07,1.41,3.4,1.41s2.46-.47,3.4-1.41c.93-.94,1.4-2.06,1.4-3.34V9.55c0-1.3-.47-2.42-1.42-3.35-.95-.93-2.07-1.4-3.37-1.4s-2.44.47-3.39,1.4c-.94.93-1.41,2.05-1.41,3.35Z"/>
  <path class="cls-2" d="M108.34,16.73l-16.79,16.79-16.66-16.79v26.32h-4.8V0h2.17l20.45,20.4,15.62-15.61"/>
  <path class="cls-2" d="M144.39,9.55h-4.75c-.42-3.2-1.93-4.8-4.53-4.8-1.67,0-2.94.4-3.79,1.21s-1.28,2.01-1.28,3.61c0,1.2.47,2.32,1.41,3.36l10.13,11.39c1.87,2.09,2.8,4.34,2.8,6.75v2.42c0,2.59-.93,4.82-2.8,6.72-1.87,1.89-4.12,2.84-6.75,2.84h-4.8c-3.17,0-5.55-.8-7.15-2.4-1.6-1.6-2.4-3.98-2.4-7.15h4.8c-.03.33-.04.59-.04.78,0,1.3.5,2.29,1.5,2.96,1,.67,2.1,1.01,3.3,1.01,1.7,0,2.93-.41,3.68-1.23.75-.82,1.12-2.02,1.12-3.59,0-1.21-.47-2.33-1.41-3.36l-10.14-11.35c-1.87-2.08-2.8-4.33-2.8-6.75v-2.42c0-2.6.93-4.84,2.8-6.73,1.87-1.88,4.12-2.83,6.75-2.83h4.8c5.98,0,9.16,3.18,9.55,9.55Z"/>
  <g>
    <path class="cls-1" d="M25.92,63.01c.63,0,1.2.09,1.71.27s.95.44,1.32.79c.37.35.65.77.85,1.27.2.5.29,1.06.29,1.69s-.1,1.19-.29,1.69c-.2.5-.48.92-.85,1.27-.37.35-.81.61-1.32.79-.51.18-1.08.27-1.71.27h-4.9v6.02h-1.34v-14.04h6.23ZM25.63,69.89c.93,0,1.68-.24,2.26-.71.58-.47.87-1.19.87-2.16s-.29-1.69-.87-2.16c-.58-.47-1.33-.71-2.26-.71h-4.6v5.74h4.6Z"/>
    <path class="cls-1" d="M32.1,68.48c.21-.43.49-.79.86-1.06.36-.28.78-.48,1.27-.61.48-.13,1.02-.2,1.61-.2.45,0,.89.04,1.34.13.45.09.85.25,1.2.48.35.24.64.57.86.99.22.43.33.98.33,1.66v5.39c0,.5.24.75.73.75.14,0,.28-.03.39-.08v1.04c-.14.03-.27.05-.38.06-.11.01-.25.02-.42.02-.31,0-.57-.04-.76-.13-.19-.08-.34-.21-.44-.36-.1-.16-.17-.34-.21-.56s-.05-.46-.05-.72h-.04c-.22.33-.45.62-.68.88-.23.26-.49.47-.77.64s-.6.3-.96.39c-.36.09-.79.14-1.29.14-.47,0-.91-.06-1.33-.17-.41-.11-.77-.29-1.08-.53-.31-.24-.55-.55-.73-.92s-.27-.82-.27-1.33c0-.71.16-1.26.47-1.66s.73-.7,1.25-.91c.52-.21,1.1-.36,1.75-.44.65-.09,1.31-.17,1.98-.25.26-.03.49-.06.69-.1.2-.04.36-.11.49-.21.13-.1.23-.23.3-.4.07-.17.11-.39.11-.67,0-.42-.07-.76-.21-1.03s-.33-.48-.57-.64c-.24-.16-.52-.27-.85-.32s-.67-.09-1.03-.09c-.79,0-1.43.19-1.93.56s-.76.97-.79,1.8h-1.24c.04-.59.16-1.1.37-1.53ZM38.29,71.5c-.08.14-.23.25-.45.31-.22.07-.42.11-.59.14-.52.09-1.07.17-1.62.25-.56.07-1.06.18-1.52.32-.46.14-.84.35-1.13.62s-.44.65-.44,1.15c0,.31.06.59.19.84.12.24.29.45.5.63.21.18.45.31.73.4.28.09.56.14.85.14.47,0,.92-.07,1.36-.22.43-.14.81-.35,1.13-.63.32-.28.58-.61.77-1s.29-.84.29-1.34v-1.61h-.04Z"/>
    <path class="cls-1" d="M43.18,66.9v2.38h.04c.31-.83.8-1.46,1.46-1.91.66-.45,1.45-.65,2.37-.61v1.24c-.56-.03-1.07.05-1.53.23-.46.18-.86.43-1.19.76-.33.33-.59.72-.78,1.17s-.27.95-.27,1.48v5.41h-1.24v-10.14h1.14Z"/>
    <path class="cls-1" d="M49.5,63.01v1.99h-1.24v-1.99h1.24ZM49.5,66.9v10.14h-1.24v-10.14h1.24Z"/>
    <path class="cls-1" d="M57.71,68.88c-.14-.28-.34-.51-.58-.7-.24-.18-.52-.32-.84-.4-.31-.08-.65-.13-1-.13-.28,0-.55.03-.84.09-.28.06-.54.16-.78.29s-.43.32-.57.54c-.14.22-.22.5-.22.83,0,.28.07.51.21.7.14.19.31.35.52.48.21.13.44.24.69.32.25.09.48.15.69.21l1.65.37c.35.05.7.15,1.05.29s.66.32.92.54c.27.22.49.5.66.83.17.33.26.71.26,1.16,0,.55-.12,1.02-.37,1.41-.25.39-.57.7-.95.94s-.82.42-1.31.52c-.49.1-.96.16-1.44.16-1.19,0-2.16-.28-2.9-.85-.74-.56-1.16-1.47-1.27-2.71h1.24c.05.84.36,1.47.91,1.9.56.43,1.25.64,2.07.64.3,0,.61-.03.93-.1.32-.07.62-.18.89-.33.27-.16.5-.36.68-.6.18-.24.27-.54.27-.89,0-.3-.06-.55-.19-.76-.12-.2-.29-.37-.5-.51-.21-.14-.45-.25-.72-.34-.27-.09-.54-.17-.82-.24l-1.59-.35c-.41-.1-.78-.23-1.12-.36-.34-.14-.64-.31-.89-.51-.26-.2-.46-.45-.6-.75-.14-.29-.22-.66-.22-1.09,0-.51.11-.95.34-1.32.23-.37.53-.66.89-.88.37-.22.78-.39,1.23-.49s.9-.16,1.35-.16c.51,0,.99.07,1.43.2.44.13.83.33,1.16.61.33.27.6.62.8,1.02.2.41.31.88.33,1.44h-1.24c-.01-.38-.09-.71-.24-.99Z"/>
    <path class="cls-1" d="M63.71,77.05c0,.29-.04.57-.11.85-.07.28-.18.54-.32.79-.14.24-.32.46-.54.64-.22.18-.47.31-.76.39v-.85c.16-.05.29-.15.41-.29.12-.14.22-.3.29-.48.08-.18.13-.36.17-.55.03-.19.04-.36.03-.5h-.83v-2.08h1.65v2.08Z"/>
    <path class="cls-1" d="M81.4,63.01v1.14h-7.57v5.07h6.72v1.14h-6.72v6.68h-1.34v-14.04h8.91Z"/>
    <path class="cls-1" d="M83.96,66.9v2.38h.04c.31-.83.8-1.46,1.46-1.91.66-.45,1.45-.65,2.37-.61v1.24c-.56-.03-1.07.05-1.53.23-.46.18-.86.43-1.19.76-.33.33-.59.72-.78,1.17s-.27.95-.27,1.48v5.41h-1.24v-10.14h1.14Z"/>
    <path class="cls-1" d="M89.27,68.48c.21-.43.49-.79.86-1.06.36-.28.78-.48,1.27-.61.48-.13,1.02-.2,1.61-.2.45,0,.89.04,1.34.13.45.09.85.25,1.2.48.35.24.64.57.86.99.22.43.33.98.33,1.66v5.39c0,.5.24.75.73.75.14,0,.28-.03.39-.08v1.04c-.14.03-.27.05-.38.06-.11.01-.25.02-.42.02-.31,0-.57-.04-.76-.13-.19-.08-.34-.21-.44-.36-.1-.16-.17-.34-.21-.56s-.05-.46-.05-.72h-.04c-.22.33-.45.62-.68.88-.23.26-.49.47-.77.64s-.6.3-.96.39c-.36.09-.79.14-1.29.14-.47,0-.91-.06-1.33-.17-.41-.11-.77-.29-1.08-.53-.31-.24-.55-.55-.73-.92s-.27-.82-.27-1.33c0-.71.16-1.26.47-1.66s.73-.7,1.25-.91c.52-.21,1.1-.36,1.75-.44.65-.09,1.31-.17,1.98-.25.26-.03.49-.06.69-.1.2-.04.36-.11.49-.21.13-.1.23-.23.3-.4.07-.17.11-.39.11-.67,0-.42-.07-.76-.21-1.03s-.33-.48-.57-.64c-.24-.16-.52-.27-.85-.32s-.67-.09-1.03-.09c-.79,0-1.43.19-1.93.56s-.76.97-.79,1.8h-1.24c.04-.59.16-1.1.37-1.53ZM95.46,71.5c-.08.14-.23.25-.45.31-.22.07-.42.11-.59.14-.52.09-1.07.17-1.62.25-.56.07-1.06.18-1.52.32-.46.14-.84.35-1.13.62s-.44.65-.44,1.15c0,.31.06.59.19.84.12.24.29.45.5.63.21.18.45.31.73.4.28.09.56.14.85.14.47,0,.92-.07,1.36-.22.43-.14.81-.35,1.13-.63.32-.28.58-.61.77-1s.29-.84.29-1.34v-1.61h-.04Z"/>
    <path class="cls-1" d="M100.43,66.9v1.75h.04c.24-.62.66-1.11,1.26-1.48.6-.37,1.26-.56,1.99-.56s1.3.09,1.78.27c.48.18.86.44,1.15.78.29.33.49.74.61,1.23.12.49.18,1.03.18,1.63v6.53h-1.24v-6.33c0-.43-.04-.84-.12-1.21s-.22-.7-.41-.97c-.2-.28-.46-.49-.8-.65-.33-.16-.75-.24-1.25-.24s-.94.09-1.33.27c-.39.18-.71.42-.98.73-.27.31-.48.68-.63,1.1-.15.43-.23.89-.25,1.39v5.92h-1.24v-10.14h1.24Z"/>
    <path class="cls-1" d="M115.99,68.3c-.46-.43-1.1-.65-1.93-.65-.59,0-1.11.12-1.55.37-.45.25-.82.58-1.11.98s-.52.87-.67,1.39c-.15.52-.23,1.04-.23,1.58s.08,1.06.23,1.58c.15.52.37.98.67,1.39s.67.73,1.11.98c.45.25.96.37,1.55.37.38,0,.74-.07,1.08-.22.34-.14.64-.34.9-.6s.48-.56.65-.91c.17-.35.28-.74.31-1.16h1.24c-.17,1.23-.62,2.19-1.36,2.88-.73.69-1.68,1.03-2.83,1.03-.77,0-1.46-.14-2.05-.42-.6-.28-1.1-.67-1.5-1.15-.41-.48-.71-1.05-.92-1.7-.21-.65-.31-1.34-.31-2.07s.1-1.43.31-2.07.52-1.22.92-1.7c.41-.48.91-.87,1.5-1.16.6-.29,1.28-.43,2.05-.43,1.09,0,2.01.29,2.76.86.75.58,1.2,1.45,1.35,2.61h-1.24c-.17-.76-.48-1.36-.94-1.79Z"/>
    <path class="cls-1" d="M120.89,73.7c.12.48.32.91.6,1.29.28.38.62.69,1.04.94s.92.37,1.51.37c.9,0,1.61-.24,2.12-.71.51-.47.87-1.1,1.06-1.89h1.24c-.26,1.15-.74,2.04-1.44,2.67-.7.63-1.69.94-2.98.94-.8,0-1.49-.14-2.07-.42-.58-.28-1.06-.67-1.43-1.16-.37-.49-.64-1.06-.82-1.71-.18-.65-.27-1.33-.27-2.05,0-.67.09-1.32.27-1.97.18-.64.45-1.22.82-1.72.37-.5.84-.91,1.43-1.22.58-.31,1.27-.46,2.07-.46s1.51.16,2.08.49c.58.33,1.04.76,1.41,1.29.36.53.62,1.14.78,1.83s.22,1.39.2,2.09h-7.81c0,.45.06.91.19,1.39ZM127.02,69.91c-.15-.43-.36-.82-.64-1.15-.28-.33-.61-.6-1-.81-.39-.2-.84-.3-1.34-.3s-.96.1-1.36.3c-.39.2-.73.47-1,.81-.28.33-.5.72-.66,1.16-.16.44-.27.89-.32,1.35h6.57c-.01-.47-.1-.92-.25-1.36Z"/>
  </g>
</svg>