<svg width="26" height="26" viewBox="0 0 26 26" fill="none" xmlns="http://www.w3.org/2000/svg">
<g id="Adobe Photoshop" clip-path="url(#clip0_104_80)">
<path id="Vector" d="M23.8333 0H2.16667C0.970667 0 0 0.969583 0 2.16667V23.8333C0 25.0304 0.970667 26 2.16667 26H23.8333C25.0293 26 26 25.0304 26 23.8333V2.16667C26 0.969583 25.0293 0 23.8333 0ZM9.04583 13.4442C8.63417 13.4442 8.49333 13.4258 8.20625 13.4258V17.5879C8.20625 17.6778 8.1705 17.7136 8.08167 17.7136H6.409C6.31908 17.7136 6.28442 17.6811 6.28442 17.5912V5.93667C6.28442 5.86408 6.435 5.811 6.526 5.811C7.22367 5.77525 8.24633 5.75683 9.31883 5.75683C12.3218 5.75683 13.4897 7.4035 13.4897 9.51167C13.4897 12.2633 11.4942 13.4442 9.04583 13.4442ZM16.8513 17.8772C15.9023 17.8772 15.0963 17.6789 14.6304 17.4113C14.56 17.3756 14.5438 17.3225 14.5438 17.2326V15.6433C14.5438 15.535 14.5958 15.4993 14.6673 15.5523C15.3433 15.9998 16.1319 16.1958 16.8469 16.1958C17.7049 16.1958 18.0624 15.8383 18.0624 15.3552C18.0624 14.9619 17.8133 14.6218 16.7223 14.0498C15.184 13.3131 14.5405 12.5656 14.5405 11.3122C14.5405 9.91792 15.6303 8.7555 17.5251 8.7555C18.4568 8.7555 19.1111 8.8985 19.4686 9.05883C19.5574 9.113 19.5769 9.20183 19.5769 9.27333V10.7575C19.5769 10.8474 19.5228 10.9016 19.4144 10.8658C18.9334 10.5798 18.2228 10.4 17.5262 10.4L17.5305 10.4043C16.6725 10.4043 16.3865 10.8333 16.3865 11.1908C16.3865 11.5841 16.5815 11.8517 17.7266 12.4421C19.4253 13.2654 19.9604 14.0508 19.9604 15.2122C19.9604 16.9455 18.6388 17.8772 16.8513 17.8772Z" fill="#FFC338"/>
<path id="Vector_2" d="M9.24403 7.47283C8.81503 7.47283 8.40444 7.49017 8.20728 7.50858V11.6913C8.45644 11.7087 8.65361 11.7087 9.08369 11.7087C10.3512 11.7087 11.5429 11.2623 11.5429 9.54633C11.5429 8.1705 10.6914 7.47283 9.24403 7.47283Z" fill="#FFC338"/>
</g>
<defs>
<clipPath id="clip0_104_80">
<rect width="26" height="26" fill="white"/>
</clipPath>
</defs>
</svg>
