<svg width="26" height="26" viewBox="0 0 26 26" fill="none" xmlns="http://www.w3.org/2000/svg">
<g id="wordpress " clip-path="url(#clip0_168_58)">
<path id="Vector" d="M21.125 0H4.875C3.58207 0 2.34209 0.513615 1.42785 1.42785C0.513615 2.34209 0 3.58207 0 4.875L0 21.125C0 22.4179 0.513615 23.6579 1.42785 24.5721C2.34209 25.4864 3.58207 26 4.875 26H21.125C22.4179 26 23.6579 25.4864 24.5721 24.5721C25.4864 23.6579 26 22.4179 26 21.125V4.875C26 3.58207 25.4864 2.34209 24.5721 1.42785C23.6579 0.513615 22.4179 0 21.125 0ZM2.99 13C2.99 11.5862 3.302 10.244 3.85775 9.03338L8.632 21.775C5.29262 20.1939 2.99 16.8594 2.99 13ZM13 22.75C12.0169 22.75 11.0695 22.6102 10.1725 22.3535L13.3055 14.1684L16.2532 22.0626C16.2727 22.1114 16.2987 22.1552 16.3247 22.1975C15.2847 22.555 14.1667 22.75 13 22.75ZM14.3764 8.42887C14.9793 8.398 15.522 8.33625 15.522 8.33625C16.0631 8.27288 15.9981 7.50263 15.4586 7.53188C15.4586 7.53188 13.8369 7.65537 12.7904 7.65537C11.8072 7.65537 10.1546 7.53188 10.1546 7.53188C9.61675 7.50263 9.55338 8.30538 10.0913 8.33625C10.0913 8.33625 10.6015 8.398 11.141 8.42725L12.701 12.5905L10.309 18.9914L6.86562 8.42887C7.4685 8.398 8.01125 8.33625 8.01125 8.33625C8.55075 8.27288 8.48737 7.50263 7.94787 7.53188C7.94787 7.53188 6.32613 7.65537 5.27963 7.65537C5.09275 7.65537 4.87012 7.6505 4.63612 7.644C6.42687 4.9985 9.503 3.25 13 3.25C15.6065 3.25 17.979 4.22175 19.76 5.80938C19.7161 5.80613 19.6755 5.80125 19.63 5.80125C18.6452 5.80125 17.9481 6.63488 17.9481 7.53188C17.9481 8.33625 18.4242 9.0155 18.9312 9.81988C19.3131 10.4699 19.5845 10.829 19.5845 12.0331C19.5845 12.8668 19.2562 13.8369 18.824 15.1856L17.8246 18.434L14.3764 8.42887ZM18.031 21.4256L21.0892 12.8164C21.6596 11.4254 21.8498 10.3139 21.8498 9.32425C21.8498 8.96512 21.827 8.632 21.7831 8.32162C22.5885 9.74927 23.0111 11.3609 23.01 13C23.01 16.5977 21.008 19.7373 18.031 21.4256Z" fill="#FFC338"/>
</g>
<defs>
<clipPath id="clip0_168_58">
<rect width="26" height="26" fill="white"/>
</clipPath>
</defs>
</svg>
